<svg xmlns="http://www.w3.org/2000/svg" version="1.1" xmlns:xlink="http://www.w3.org/1999/xlink" xmlns:svgjs="http://svgjs.dev/svgjs" width="100%" height="100%" viewBox="0 0 1000 600"><rect width="1000" height="600" x="0" y="0" fill="#f9d342"/><g><circle r="166.66666666666666" cx="468.69986979166663" cy="490.9219774534645" fill="#292826" transform="matrix(0.41386189984460586,0,0,0.41386189984460586,0,96.82608602461474)"/><path d="M514.9072848782181 565.9219960731205L422.4924266918206 565.9219960731205L422.4924266918206 415.9220001223346L514.9072848782181 415.9220001223346L514.9072848782181 431.9436715164588L441.13461990817217 431.9436715164588L441.13461990817217 482.33066706029865L510.628204940657 482.33066706029865L510.628204940657 498.31916729211616L441.13461990817217 498.31916729211616L441.13461990817217 549.6681265428496L514.9072848782181 549.6681265428496L514.9072848782181 565.9219960731205Z " fill="#f9d342" transform="matrix(0.41386189984460586,0,0,0.41386189984460586,0,96.82608602461474)"/><path d="M764.9154273379982 565.9219943656914L764.9154273379982 565.9219943656914Q751.6600294134139 565.9219943656914 741.2280906880125 559.1456922876528Q730.796151962611 552.339669586465 724.7628654633047 540.2433759647032Q718.6998583408492 528.1768029660907 718.6998583408492 512.424872696966L718.6998583408492 512.424872696966Q718.6998583408492 495.63272061761603 724.7034242170062 483.5364269958542Q730.6772694700139 471.46985399724167 741.1092081954152 464.9907581506961Q751.5411469208168 458.51166230415043 764.9154273379982 458.51166230415043L764.9154273379982 458.51166230415043Q776.5956322356699 458.51166230415043 784.8282448480237 463.2075207617385Q793.0608574603775 467.93309984247594 798.0836427726078 475.9576680927848Q803.1361487079876 483.98223634309363 805.0977098358408 494.08724821385283Q807.0889915868433 504.1922600846121 806.2270935155138 515.0105669109544L806.2270935155138 515.0105669109544L732.1930212506277 515.0105669109544L732.1930212506277 504.72723130129935L795.2007423271266 504.72723130129935L790.2968395074934 507.9370586014229Q790.5940457389863 501.636286493773 789.5835445519103 495.30579376297385Q788.5730433648345 489.00502165532396 785.779304788801 483.71475073474994Q783.0152868359169 478.42447981417604 777.9925015236865 475.2146525140525Q772.9399955883069 472.00482521392894 765.1531923231925 472.00482521392894L765.1531923231925 472.00482521392894Q755.2859454376276 472.00482521392894 748.6582464753354 477.02761052615926Q742.0305475130433 482.0503958383896 738.7018377203226 490.2235672044449Q735.4028485507513 498.42645919364946 735.4028485507513 507.9370586014229L735.4028485507513 507.9370586014229L735.4028485507513 514.8025225489093Q735.4028485507513 525.5019468826545 738.6721170971734 533.9426038570533Q741.9116650204462 542.3832608314522 748.4502021132904 547.3168842742347Q754.9887392061346 552.2505077170172 764.9154273379982 552.2505077170172L764.9154273379982 552.2505077170172Q774.8718360930109 552.2505077170172 781.291490693258 547.4357667668319Q787.7111452935051 542.6210258166466 789.1080145815217 533.199588278321L789.1080145815217 533.199588278321L806.4351378775589 533.199588278321Q804.8302242274972 543.3640413953788 799.1535852059824 550.6753146901046Q793.506666807617 558.0163086079797 784.7093623554265 561.9691514868356Q775.9417785263854 565.9219943656914 764.9154273379982 565.9219943656914ZM928.5274577748501 563.3660207748522L912.032511926993 563.3660207748522L912.032511926993 503.24120014383476Q912.032511926993 488.58893293123384 905.0481654869095 480.9210121587165Q898.0340984236766 473.2828120093485 885.9378048019148 473.2828120093485L885.9378048019148 473.2828120093485Q876.7244116256343 473.2828120093485 870.0075507938943 478.30559732157883Q863.260969339005 483.32838263380916 859.6053326916422 492.6903789258361Q855.9794166674285 502.0523752178631 855.9794166674285 515.0105669109544L855.9794166674285 515.0105669109544L849.5597620671815 515.0105669109544Q849.5597620671815 497.1484723982299 854.2556205247696 484.51720755978084Q858.981199605507 471.8859427213318 868.0162690428917 465.1988025127411Q877.0513384802765 458.51166230415043 890.0095301733677 458.51166230415043L890.0095301733677 458.51166230415043Q902.1058237951296 458.51166230415043 910.6950838852749 463.92081571732155Q919.3140645985696 469.3299691304927 923.9207611867098 479.37553975495337Q928.5274577748501 489.421110379414 928.5274577748501 503.24120014383476L928.5274577748501 503.24120014383476L928.5274577748501 563.3660207748522ZM855.9794166674285 563.3660207748522L839.2764264575264 563.3660207748522L839.2764264575264 461.0676358949895L853.6314874386345 461.0676358949895L855.9794166674285 484.6063694292287L855.9794166674285 563.3660207748522ZM1005.0283417611274 565.9219943656914L1005.0283417611274 565.9219943656914Q992.6051212847234 565.9219943656914 982.2326238056205 559.2348541571007Q971.8601263265177 552.54771394851 965.6485160883157 540.421699703599Q959.4369058501136 528.2659648355385 959.4369058501136 511.8007396108308L959.4369058501136 511.8007396108308Q959.4369058501136 495.424676255571 965.5296335957185 483.44726512640636Q971.6520819644727 471.46985399724167 981.7570938352319 464.9907581506961Q991.8621057059911 458.51166230415043 1003.9583993277529 458.51166230415043L1003.9583993277529 458.51166230415043Q1015.1927948781853 458.51166230415043 1023.6928930988828 463.98025696362015Q1032.1929913195804 469.41913099994053 1036.9185704003175 479.70246660959555Q1041.6144288579058 489.9560815961013 1041.6144288579058 504.5191869392543L1041.6144288579058 504.5191869392543L1035.1947742576588 504.5191869392543Q1035.1947742576588 494.35473382219647 1031.1824901325044 487.40010800526215Q1027.1702060073499 480.44548218832784 1020.7505514071029 476.8492867872635Q1014.3308968068559 473.2828120093485 1006.9601822658315 473.2828120093485L1006.9601822658315 473.2828120093485Q998.6086871608804 473.2828120093485 991.7135025902446 477.91922922063804Q984.7885973964596 482.58536705507686 980.6871514018574 491.2043477683715Q976.5559847841058 499.8233284816662 976.5559847841058 511.8007396108308L976.5559847841058 511.8007396108308Q976.5559847841058 523.9861951020405 980.6871514018574 532.7537789310816Q984.7885973964596 541.551083383272 991.7135025902446 546.2469418408601Q998.6086871608804 550.9428002984482 1006.9601822658315 550.9428002984482L1006.9601822658315 550.9428002984482Q1013.9148080827657 550.9428002984482 1020.364183306162 547.3168842742347Q1026.8432791527077 543.6909682500211 1031.033887016758 536.6769011867882Q1035.1947742576588 529.6628341235553 1035.1947742576588 519.7064253685425L1035.1947742576588 519.7064253685425L1041.6144288579058 519.7064253685425Q1041.6144288579058 534.5964575663377 1036.740246661422 544.909513799142Q1031.866064464938 555.2225700319464 1023.5740106062856 560.5722821988188Q1015.2819567476331 565.9219943656914 1005.0283417611274 565.9219943656914ZM1051.8977644675608 563.3660207748522L1037.9885128336923 563.3660207748522L1035.1947742576588 539.411198516523L1035.1947742576588 417.437761111829L1051.8977644675608 417.437761111829L1051.8977644675608 563.3660207748522ZM1111.9037026059812 563.3660207748522L1095.2304330192285 563.3660207748522L1095.2304330192285 417.437761111829L1111.9037026059812 417.437761111829L1111.9037026059812 563.3660207748522ZM1190.6633539516047 565.9219943656914L1190.6633539516047 565.9219943656914Q1177.3782354038713 565.9219943656914 1166.94629667847 559.1456922876528Q1156.5143579530684 552.339669586465 1150.481071453762 540.2433759647032Q1144.4477849544558 528.1768029660907 1144.4477849544558 512.424872696966L1144.4477849544558 512.424872696966Q1144.4477849544558 495.63272061761603 1150.4216302074635 483.5364269958542Q1156.4251960836204 471.46985399724167 1166.857134809022 464.9907581506961Q1177.2890735344233 458.51166230415043 1190.6633539516047 458.51166230415043L1190.6633539516047 458.51166230415043Q1202.313838226127 458.51166230415043 1210.546450838481 463.2075207617385Q1218.808784073984 467.93309984247594 1223.8315693862144 475.9576680927848Q1228.8543546984447 483.98223634309363 1230.8456364494473 494.08724821385283Q1232.8071975773007 504.1922600846121 1231.9452995059712 515.0105669109544L1231.9452995059712 515.0105669109544L1157.911227241085 515.0105669109544L1157.911227241085 504.72723130129935L1220.9486689407331 504.72723130129935L1216.0150454979507 507.9370586014229Q1216.341972352593 501.636286493773 1215.331471165517 495.30579376297385Q1214.2912493552917 489.00502165532396 1211.5272314024078 483.71475073474994Q1208.7334928263742 478.42447981417604 1203.710707514144 475.2146525140525Q1198.6879222019134 472.00482521392894 1190.8713983136497 472.00482521392894L1190.8713983136497 472.00482521392894Q1181.033872051234 472.00482521392894 1174.406173088942 477.02761052615926Q1167.7487535035007 482.0503958383896 1164.4497643339294 490.2235672044449Q1161.1210545412087 498.42645919364946 1161.1210545412087 507.9370586014229L1161.1210545412087 507.9370586014229L1161.1210545412087 514.8025225489093Q1161.1210545412087 525.5019468826545 1164.3903230876308 533.9426038570533Q1167.6595916340527 542.3832608314522 1174.1684081037477 547.3168842742347Q1180.706945196592 552.2505077170172 1190.6633539516047 552.2505077170172L1190.6633539516047 552.2505077170172Q1200.6197627066174 552.2505077170172 1207.0394173068646 547.4357667668319Q1213.4590719071116 542.6210258166466 1214.8262205719789 533.199588278321L1214.8262205719789 533.199588278321L1232.1830644911656 533.199588278321Q1230.5781508411037 543.3640413953788 1224.901511819589 550.6753146901046Q1219.2248727980743 558.0163086079797 1210.457288969033 561.9691514868356Q1201.689705139992 565.9219943656914 1190.6633539516047 565.9219943656914ZM1301.8184845299565 565.9219943656914L1301.8184845299565 565.9219943656914Q1286.9581729553106 565.9219943656914 1277.0017642002977 561.7016658784919Q1267.045355445285 557.4813373912925 1261.9036876404575 550.0511816039696Q1256.7917404587793 542.6210258166466 1256.464813604137 532.991543916276L1256.464813604137 532.991543916276L1272.5139501047547 532.991543916276Q1273.0489213214419 542.7101876860944 1280.3601946161677 547.5843698825782Q1287.7011885340428 552.4585520790622 1300.3324533724917 552.4585520790622L1300.3324533724917 552.4585520790622Q1306.960152334784 552.4585520790622 1312.5179088637015 550.3186672123131Q1318.0756653926192 548.1787823455641 1321.4043751853396 544.4339838287533Q1324.7330849780606 540.6891853119425 1324.7330849780606 535.9636062312052L1324.7330849780606 535.9636062312052Q1324.7330849780606 529.9897609781974 1320.3344327519653 526.5718893160289Q1315.93578052587 523.124297030711 1306.3062986254995 520.568323439872L1306.3062986254995 520.568323439872L1286.4232017386232 514.1486688396249Q1273.465010045532 510.07694346817186 1266.5698254748963 502.9737145354911Q1259.6746409042605 495.84076497966106 1259.6746409042605 485.91407684779756L1259.6746409042605 485.91407684779756Q1259.6746409042605 473.49085637139353 1270.582109600051 466.001259337772Q1281.4895782958406 458.51166230415043 1299.2625109391174 458.51166230415043L1299.2625109391174 458.51166230415043Q1318.0756653926192 458.51166230415043 1328.4778834948713 466.20930369981704Q1338.8503809739743 473.90694509548365 1339.2664696980644 485.4682675005582L1339.2664696980644 485.4682675005582L1322.8012444733567 485.4682675005582Q1321.8204639094297 478.72168604566895 1315.93578052587 475.24437313720176Q1310.0510971423103 471.76706022873464 1299.2625109391174 471.76706022873464L1299.2625109391174 471.76706022873464Q1288.8900134600144 471.76706022873464 1283.035050699604 476.43319806317345Q1277.2098085623427 481.09933589761226 1277.2098085623427 486.74625429597774L1277.2098085623427 486.74625429597774Q1277.2098085623427 497.356516760275 1295.3988299297093 502.3793020725053L1295.3988299297093 502.3793020725053L1315.727736163825 509.2150453968424Q1328.8939722189614 513.1976088988475 1335.9080392821943 519.6172634990946Q1342.9221063454272 526.0369180993416 1342.9221063454272 535.9636062312052L1342.9221063454272 535.9636062312052Q1342.9221063454272 543.6909682500211 1337.8696004100475 550.5267115743582Q1332.8468150978172 557.3624548986953 1323.663142544686 561.6422246321933Q1314.4497493684055 565.9219943656914 1301.8184845299565 565.9219943656914ZM1414.2813225268771 565.9219943656914L1414.2813225268771 565.9219943656914Q1399.3912903290818 565.9219943656914 1389.4646021972183 561.7016658784919Q1379.5081934422053 557.4813373912925 1374.3665256373781 550.0511816039696Q1369.2248578325505 542.6210258166466 1368.8979309779083 532.991543916276L1368.8979309779083 532.991543916276L1384.947067478526 532.991543916276Q1385.482038695213 542.7101876860944 1392.8230326130881 547.5843698825782Q1400.1640265309634 552.4585520790622 1412.7655707462632 552.4585520790622L1412.7655707462632 552.4585520790622Q1419.4229903317043 552.4585520790622 1424.980746860622 550.3186672123131Q1430.5385033895398 548.1787823455641 1433.8672131822605 544.4339838287533Q1437.1662023518318 540.6891853119425 1437.1662023518318 535.9636062312052L1437.1662023518318 535.9636062312052Q1437.1662023518318 529.9897609781974 1432.797270748886 526.5718893160289Q1428.3986185227907 523.124297030711 1418.76913662242 520.568323439872L1418.76913662242 520.568323439872L1398.8563191123947 514.1486688396249Q1385.9278480424525 510.07694346817186 1379.032663471817 502.9737145354911Q1372.107758278032 495.84076497966106 1372.107758278032 485.91407684779756L1372.107758278032 485.91407684779756Q1372.107758278032 473.49085637139353 1383.044947596971 466.001259337772Q1393.9524162927614 458.51166230415043 1411.6956283128886 458.51166230415043L1411.6956283128886 458.51166230415043Q1430.5385033895398 458.51166230415043 1440.9110008686425 466.20930369981704Q1451.2834983477455 473.90694509548365 1451.7293076949848 485.4682675005582L1451.7293076949848 485.4682675005582L1435.234361847128 485.4682675005582Q1434.2833019063505 478.72168604566895 1428.3986185227907 475.24437313720176Q1422.5139351392309 471.76706022873464 1411.6956283128886 471.76706022873464L1411.6956283128886 471.76706022873464Q1401.3231308337856 471.76706022873464 1395.4978886965243 476.43319806317345Q1389.6726465592635 481.09933589761226 1389.6726465592635 486.74625429597774L1389.6726465592635 486.74625429597774Q1389.6726465592635 497.356516760275 1407.86166792663 502.3793020725053L1407.86166792663 502.3793020725053L1428.1905741607457 509.2150453968424Q1441.3568102158818 513.1976088988475 1448.3411566559655 519.6172634990946Q1455.3552237191986 526.0369180993416 1455.3552237191986 535.9636062312052L1455.3552237191986 535.9636062312052Q1455.3552237191986 543.6909682500211 1450.332438406968 550.5267115743582Q1445.3096530947378 557.3624548986953 1436.0962599184575 561.6422246321933Q1426.9125873653263 565.9219943656914 1414.2813225268771 565.9219943656914ZM1525.882262452468 565.9219943656914L1525.882262452468 565.9219943656914Q1513.5779244686612 565.9219943656914 1502.9082207580652 559.2942954033992Q1492.268237670619 552.6665964411072 1485.759421200924 540.5703028193454Q1479.2208841080799 528.4740091975837 1479.2208841080799 512.0087839728758L1479.2208841080799 512.0087839728758Q1479.2208841080799 495.09774940092876 1485.759421200924 483.1203382717641Q1492.268237670619 471.1429271425995 1502.9082207580652 464.8124344118003Q1513.5779244686612 458.51166230415043 1525.882262452468 458.51166230415043L1525.882262452468 458.51166230415043Q1534.5309637889122 458.51166230415043 1541.4261483595478 461.1270771412881Q1548.351053553333 463.7424919784258 1553.4630007350113 468.34918856656606Q1558.6046685398385 472.95588515470627 1561.992819578858 478.7811272919675Q1565.3512499947278 484.6063694292287 1566.9561636447895 491.02602402947576L1566.9561636447895 491.02602402947576L1549.8370847107974 492.5417758100897Q1547.1622286273612 483.6553094884514 1540.8911771428604 478.4542004373253Q1534.649846281509 473.2828120093485 1525.6444974672738 473.2828120093485L1525.6444974672738 473.2828120093485Q1518.0657385642044 473.2828120093485 1511.3785983556138 477.62202298914514Q1504.691458147023 481.93151334579244 1500.500850282973 490.5504940590871Q1496.339963042072 499.16947477238176 1496.339963042072 512.0087839728758L1496.339963042072 512.0087839728758Q1496.339963042072 523.8970332325927 1500.1442028051815 532.6051758153351Q1503.9484425682906 541.3133183980776 1510.576141530583 546.1280593482629Q1517.2038404928749 550.9428002984482 1525.6444974672738 550.9428002984482L1525.6444974672738 550.9428002984482Q1537.5327467269906 550.9428002984482 1543.6849157188942 545.117558161187Q1549.8370847107974 539.2923160239259 1549.8370847107974 528.9198185448229L1549.8370847107974 528.9198185448229L1566.9561636447895 528.9198185448229Q1566.9561636447895 539.619242878568 1561.9333783325592 547.970737983519Q1556.9105930203289 556.2925124653208 1547.6377585977498 561.1072534155061Q1538.39464479832 565.9219943656914 1525.882262452468 565.9219943656914ZM1689.5834547587679 563.3660207748522L1673.0885089109108 563.3660207748522L1673.0885089109108 503.24120014383476Q1673.0885089109108 488.58893293123384 1666.0744418476781 480.9210121587165Q1659.0900954075944 473.2828120093485 1646.9938017858326 473.2828120093485L1646.9938017858326 473.2828120093485Q1637.7804086095523 473.2828120093485 1631.0338271546627 478.30559732157883Q1624.316966322923 483.32838263380916 1620.66132967556 492.6903789258361Q1617.0354136513465 502.0523752178631 1617.0354136513465 515.0105669109544L1617.0354136513465 515.0105669109544L1610.6157590510993 515.0105669109544Q1610.6157590510993 497.1484723982299 1615.3116175086877 484.51720755978084Q1620.0371965894249 471.8859427213318 1629.0722660268098 465.1988025127411Q1638.1073354641944 458.51166230415043 1651.0655271572857 458.51166230415043L1651.0655271572857 458.51166230415043Q1663.1321001558983 458.51166230415043 1671.751080869193 463.92081571732155Q1680.3700615824876 469.3299691304927 1684.9767581706278 479.37553975495337Q1689.5834547587679 489.421110379414 1689.5834547587679 503.24120014383476L1689.5834547587679 503.24120014383476L1689.5834547587679 563.3660207748522ZM1617.0354136513465 563.3660207748522L1600.3324234414445 563.3660207748522L1600.3324234414445 417.437761111829L1617.0354136513465 417.437761111829L1617.0354136513465 563.3660207748522ZM1807.366284299412 563.3660207748522L1792.832899579408 563.3660207748522L1790.6930147126593 540.8972296739876L1790.6930147126593 497.02958990563275Q1790.6930147126593 483.23922076436133 1784.8083313290992 477.17621364190575Q1778.9236479455392 471.1429271425995 1767.15428117842 471.1429271425995L1767.15428117842 471.1429271425995Q1760.4968615929786 471.1429271425995 1755.1174288029567 473.0747676473035Q1749.7082753897855 474.97688752885813 1746.5578893359605 478.9891716540126Q1743.3777826589865 483.001455779167 1743.3777826589865 489.33194850996614L1743.3777826589865 489.33194850996614L1724.7726725675295 489.33194850996614Q1724.7726725675295 478.1867148289817 1730.241267226999 471.4104127509431Q1735.6801412633197 464.6043900497553 1745.250181917392 461.5728864885275Q1754.8499431946132 458.51166230415043 1767.15428117842 458.51166230415043L1767.15428117842 458.51166230415043Q1778.9236479455392 458.51166230415043 1788.0181586292226 462.4645051830062Q1797.112669312906 466.41734806186207 1802.2246164945843 475.03632877515673Q1807.366284299412 483.6553094884514 1807.366284299412 497.4456786297228L1807.366284299412 497.4456786297228L1807.366284299412 563.3660207748522ZM1757.9408880021394 565.9219943656914L1757.9408880021394 565.9219943656914Q1745.3096231636903 565.9219943656914 1737.0770105513363 561.4341802701483Q1728.8443979389826 556.9463661746053 1724.7726725675295 549.7836959956259Q1720.7009471960766 542.6210258166466 1720.7009471960766 534.6856194357856L1720.7009471960766 534.6856194357856Q1720.7009471960766 524.3131219566827 1725.9020562472026 517.7745848638385Q1731.0734446751796 511.26576839414355 1740.078793489415 508.2045442097665Q1749.0544216805013 505.17304064853874 1760.2888172309333 505.17304064853874L1760.2888172309333 505.17304064853874Q1768.313385481242 505.17304064853874 1776.3973949778494 506.7779542986005Q1784.481404474457 508.38286794866224 1792.1790458701237 511.1468859015464L1792.1790458701237 511.1468859015464L1792.1790458701237 521.6382658732464Q1785.7593912698765 519.0822922824074 1777.675381773269 517.5665405017935Q1769.5913722766616 516.0805093443289 1762.8745114449218 516.0805093443289L1762.8745114449218 516.0805093443289Q1752.591175835267 516.0805093443289 1745.5176675257355 520.3008378315283Q1738.4738798393532 524.5211663187278 1738.4738798393532 534.6856194357856L1738.4738798393532 534.6856194357856Q1738.4738798393532 542.1752164694071 1743.8830332525242 547.5249286362797Q1749.262466042546 552.8746408031523 1761.1507153022628 552.8746408031523L1761.1507153022628 552.8746408031523Q1769.5022104072139 552.8746408031523 1776.1893506158046 548.981239170595Q1782.8764908243954 545.0581169148885 1786.7698924569524 539.1734335313287Q1790.6930147126593 533.2887501477688 1790.6930147126593 527.4040667642091L1790.6930147126593 527.4040667642091L1794.7350194609628 527.4040667642091Q1794.7350194609628 537.6874023738641 1790.3066466117182 546.4549862029052Q1785.8782737624736 555.2225700319464 1777.6159405269707 560.5722821988188Q1769.3833279146168 565.9219943656914 1757.9408880021394 565.9219943656914ZM1878.725500480862 565.9219943656914L1878.725500480862 565.9219943656914Q1870.4037259990603 565.9219943656914 1863.7463064136184 562.7121670655679Q1857.1186074513264 559.5023397654443 1853.2846470650677 553.0826851651973Q1849.42096605566 546.6630305649502 1849.42096605566 537.0335486645797L1849.42096605566 537.0335486645797L1849.42096605566 432.6249995411172L1865.8861912803675 432.6249995411172L1865.8861912803675 536.6174599404895Q1865.8861912803675 552.4585520790622 1880.6573409855657 552.4585520790622L1880.6573409855657 552.4585520790622Q1885.055993211661 552.4585520790622 1889.1574392062632 551.4777715151355Q1893.288605824015 550.5267115743582 1898.4302736288425 548.5948710696542L1898.4302736288425 548.5948710696542L1900.778202857636 560.5722821988188Q1895.3096081981669 562.9499320507622 1889.9301754081446 564.4359632082268Q1884.5210219949734 565.9219943656914 1878.725500480862 565.9219943656914ZM1898.2222292667973 472.6289583000641L1832.9557408309522 472.6289583000641L1832.9557408309522 461.0676358949895L1898.2222292667973 461.0676358949895L1898.2222292667973 472.6289583000641ZM1912.5475696247556 553.4096120198395L1912.5475696247556 553.4096120198395Q1912.5475696247556 548.3868267076092 1916.0843237795218 544.7609106833955Q1919.6210779342875 541.1052740360326 1924.97079010116 541.1052740360326L1924.97079010116 541.1052740360326Q1930.3205022680324 541.1052740360326 1934.0653007848434 544.7609106833955Q1937.810099301654 548.3868267076092 1937.810099301654 553.4096120198395L1937.810099301654 553.4096120198395Q1937.810099301654 558.4323973320699 1934.0653007848434 561.8799896173877Q1930.3205022680324 565.2978612795563 1924.97079010116 565.2978612795563L1924.97079010116 565.2978612795563Q1919.6210779342875 565.2978612795563 1916.0843237795218 561.8205483710891Q1912.5475696247556 558.3432354626219 1912.5475696247556 553.4096120198395ZM1975.3472463392097 436.9047692746152L1975.3472463392097 436.9047692746152Q1970.205578534382 436.9047692746152 1967.233516219453 433.9624275828353Q1964.2317332813748 431.02008589105543 1964.2317332813748 426.20534494087013L1964.2317332813748 426.20534494087013Q1964.2317332813748 421.4797658601327 1967.233516219453 418.71574790724856Q1970.205578534382 415.9220093312151 1975.3472463392097 415.9220093312151L1975.3472463392097 415.9220093312151Q1980.4889141440374 415.9220093312151 1983.4906970821155 418.71574790724856Q1986.492480020194 421.4797658601327 1986.492480020194 426.20534494087013L1986.492480020194 426.20534494087013Q1986.492480020194 431.02008589105543 1983.4906970821155 433.9624275828353Q1980.4889141440374 436.9047692746152 1975.3472463392097 436.9047692746152ZM1983.6987414441608 563.3660207748522L1966.9957512342587 563.3660207748522L1966.9957512342587 460.8595915329445L1983.6987414441608 460.8595915329445L1983.6987414441608 563.3660207748522ZM2066.738162523282 565.9219943656914L2066.738162523282 565.9219943656914Q2052.918072758862 565.9219943656914 2042.159207178818 559.8292666200865Q2031.4300622219237 553.7365388744818 2025.2184519837213 541.7591277453171Q2019.0068417455198 529.7817166161524 2019.0068417455198 512.2168283349209L2019.0068417455198 512.2168283349209Q2019.0068417455198 494.56277818424155 2025.2184519837213 482.64480830137546Q2031.4300622219237 470.6971177953601 2042.159207178818 464.6043900497553Q2052.918072758862 458.51166230415043 2066.738162523282 458.51166230415043L2066.738162523282 458.51166230415043Q2080.4096491719565 458.51166230415043 2091.168514752 464.6043900497553Q2101.927380332044 470.6971177953601 2108.0795493239475 482.64480830137546Q2114.231718315851 494.56277818424155 2114.231718315851 512.2168283349209L2114.231718315851 512.2168283349209Q2114.231718315851 529.7817166161524 2108.0795493239475 541.7591277453171Q2101.927380332044 553.7365388744818 2091.168514752 559.8292666200865Q2080.4096491719565 565.9219943656914 2066.738162523282 565.9219943656914ZM2066.2923531760425 551.3886096456877L2066.2923531760425 551.3886096456877Q2076.248761931056 551.3886096456877 2083.20338774799 546.6333099418009Q2090.1580135649247 541.848289614765 2093.7542089659883 533.0807057857238Q2097.320683743904 524.3131219566827 2097.320683743904 512.2168283349209L2097.320683743904 512.2168283349209Q2097.320683743904 493.9386450981064 2089.741924840834 483.38782388010776Q2082.1334453146155 472.8370026621091 2067.1542512473725 472.8370026621091L2067.1542512473725 472.8370026621091Q2057.1086806229123 472.8370026621091 2050.1837754291273 477.62202298914514Q2043.288590858491 482.37732269303183 2039.722116080576 491.2043477683715Q2036.1259206795119 500.0313728437112 2036.1259206795119 512.2168283349209L2036.1259206795119 512.2168283349209Q2036.1259206795119 530.3166878328396 2043.7641208288794 540.837788427689Q2051.432041601397 551.3886096456877 2066.2923531760425 551.3886096456877Z " fill="#292826" transform="matrix(0.41386189984460586,0,0,0.41386189984460586,0,96.82608602461474)"/></g></svg>